<?xml version="1.0" encoding="utf-8"?>
<!-- Generator: Adobe Illustrator 21.1.0, SVG Export Plug-In . SVG Version: 6.00 Build 0)  -->
<svg version="1.1" id="Calque_1" xmlns="http://www.w3.org/2000/svg" xmlns:xlink="http://www.w3.org/1999/xlink" x="0px" y="0px"
	 viewBox="0 0 345.4 39.5" style="enable-background:new 0 0 345.4 39.5;" xml:space="preserve">
<style type="text/css">
	.st0{fill:#FFFFFF;}
	.st1{fill:#E30613;}
</style>
<title>Logo texte blanc</title>
<path class="st0" d="M33.6,38.5H40V8.9h-6.4V38.5z M45.1,14.3h7.1v24.2h6.3V14.3h7.1V8.9H45.1L45.1,14.3z M14.1,27.3h7v4.6
	c-1.8,1.3-3.9,1.9-6.1,1.9c-5.2,0-8.8-4-8.8-9.9c0-5.4,3.7-9.7,8.4-9.7c2.8-0.1,5.4,1,7.4,2.9l0.4,0.4l3.8-4.7l-0.4-0.3
	c-3-2.8-6.9-4.3-11-4.1C6.5,8.4,0,15.2,0,24v0.1c0,9,6.3,15.5,14.9,15.5c4.4,0,8.6-1.7,11.9-4.7l0.2-0.2v-13H14.1V27.3z M77.2,26
	h8.7v-5.2h-8.7v-6.5h10V8.9H70.8v29.6h16.4v-5.4h-10V26z M108.3,25.1c-0.7-0.8-1.5-1.5-2.3-2.1c-1.1-0.7-2.2-1.4-3.3-2l-2-1.1
	c-0.6-0.3-1.1-0.6-1.6-1c-0.4-0.3-0.8-0.7-1-1.1c-0.3-0.4-0.4-0.9-0.4-1.4c0-0.9,0.4-1.7,1.2-2.2c0.9-0.5,2-0.8,3.1-0.7
	c0.4,0,0.8,0,1.2,0.1c0.4,0.1,0.9,0.2,1.3,0.3c0.4,0.1,0.8,0.2,1.1,0.4c0.3,0.1,0.5,0.2,0.8,0.4l2.8-4.6c-1-0.6-2.2-1-3.3-1.3
	c-1.5-0.4-3-0.6-4.5-0.6c-1.4,0-2.8,0.2-4.1,0.6c-1.1,0.4-2.2,1-3.1,1.7c-0.8,0.7-1.5,1.6-1.9,2.6c-0.5,1-0.7,2.2-0.7,3.3
	c0,1.9,0.7,3.8,2,5.3c1.7,1.6,3.6,2.9,5.8,3.7c1.3,0.5,2.5,1.2,3.4,2.2c0.6,0.7,0.9,1.6,0.9,2.5c0.1,1-0.4,2-1.2,2.6
	c-1,0.7-2.1,1-3.3,0.9c-1,0-2-0.1-2.9-0.4c-0.8-0.3-1.5-0.6-2.2-1L93.6,32l-2.3,5.1c1.1,0.6,2.4,1,3.6,1.3c1.7,0.5,3.5,0.7,5.3,0.6
	c1.3,0,2.7-0.2,3.9-0.6c1.2-0.4,2.2-0.9,3.1-1.7c0.9-0.8,1.6-1.7,2.1-2.8c0.5-1.2,0.8-2.5,0.8-3.8c0-0.9-0.1-1.9-0.4-2.8
	C109.3,26.6,108.9,25.8,108.3,25.1L108.3,25.1z M152.1,12.8c-1.2-1.4-2.8-2.6-4.5-3.4c-2-0.9-4.2-1.3-6.4-1.2c-0.6,0-1.4,0-2.2,0.1
	s-1.8,0.2-2.7,0.3s-1.8,0.2-2.6,0.4c-0.7,0.1-1.3,0.3-2,0.5V38c0.7,0.2,1.4,0.4,2.1,0.5c0.8,0.2,1.7,0.3,2.6,0.4s1.8,0.2,2.7,0.3
	s1.6,0.1,2.2,0.1c2.2,0.1,4.5-0.4,6.5-1.4c1.7-0.9,3.2-2.1,4.4-3.6c1.2-1.5,2-3.2,2.6-5c0.6-1.8,0.8-3.7,0.8-5.5c0-2-0.3-4-0.9-5.9
	C154.3,16,153.3,14.3,152.1,12.8L152.1,12.8z M148.9,27.5c-0.3,1.2-0.8,2.2-1.5,3.2c-0.6,0.9-1.4,1.7-2.4,2.2
	c-1,0.5-2.1,0.8-3.2,0.8c-0.7,0-1.3,0-2-0.1c-0.6-0.1-1.1-0.2-1.6-0.3v-19c0.4-0.2,0.9-0.3,1.4-0.4c0.7-0.1,1.3-0.2,2-0.2
	c1.2,0,2.4,0.3,3.5,0.8c0.9,0.5,1.8,1.2,2.4,2.1c0.7,1,1.2,2.1,1.5,3.2c0.3,1.3,0.5,2.6,0.5,3.9C149.4,25,149.2,26.3,148.9,27.5
	L148.9,27.5z M168.1,26h8.7v-5.2h-8.7v-6.5h10V8.9h-16.4v29.6h16.4v-5.4h-10L168.1,26z M200.6,38.5h6.4V26.3h8.7v-5.2H207v-6.8h10
	V8.9h-16.4L200.6,38.5z M238.9,23c0.8-1.4,1.2-3,1.2-4.6c0-1.3-0.3-2.7-0.8-3.9c-0.5-1.2-1.3-2.3-2.2-3.2c-1-1-2.1-1.7-3.4-2.2
	c-1.4-0.6-2.9-0.8-4.4-0.8c-1.6,0-3.1,0.1-4.6,0.4c-1.3,0.2-2.5,0.5-3.7,0.9v29h6.4V28h2.8h0.1l4.8,10.5h6.9l-6.1-12
	C237,25.6,238.1,24.4,238.9,23L238.9,23z M233.6,19.8c-0.2,0.5-0.5,1-0.9,1.4c-0.4,0.4-0.8,0.8-1.3,1c-0.5,0.2-1.1,0.4-1.7,0.4h-2.5
	v-8.2c0.4-0.2,0.9-0.3,1.3-0.3c0.4-0.1,0.8-0.1,1.2-0.1c1.1,0,2.2,0.5,3,1.3c0.4,0.4,0.6,0.8,0.8,1.3c0.2,0.5,0.3,1.1,0.3,1.6
	C233.9,18.8,233.8,19.3,233.6,19.8L233.6,19.8z M254.1,8.5l-11.5,29.8h5.9l2.6-6.8H262l2.5,6.8h6L259.1,8.5L254.1,8.5z M253.2,25.7
	l3.4-8.8l3.4,8.8L253.2,25.7z M290.6,26.9L278.2,8.7h-5.1v29.8h5.6V19.7l12.8,18.8h4.7V8.7h-5.6V26.9z M309.4,16.5
	c0.9-0.9,1.9-1.6,3.1-2.1c1.2-0.5,2.5-0.8,3.8-0.8c0.9,0,1.8,0.1,2.7,0.3c1,0.2,2,0.6,2.9,1.2l2.7-4.4c-1.2-0.9-2.6-1.5-4-1.9
	c-1.5-0.4-3.1-0.6-4.6-0.6c-2.1,0-4.2,0.4-6.2,1.2c-1.9,0.8-3.6,1.9-5,3.3c-1.4,1.4-2.6,3-3.4,4.9c-1.7,3.9-1.7,8.2,0,12.1
	c1.7,3.8,4.7,6.7,8.6,8.3c2,0.8,4.1,1.2,6.3,1.2c1.5,0,3-0.2,4.4-0.6c1.4-0.4,2.8-1,4-1.9l-2.8-4.5c-0.9,0.6-1.8,1-2.9,1.2
	c-0.9,0.2-1.8,0.3-2.7,0.4c-1.3,0-2.6-0.3-3.8-0.8c-1.2-0.5-2.2-1.2-3.1-2.1c-0.9-0.9-1.6-2-2.1-3.2c-1-2.6-1-5.4,0-8
	C307.8,18.5,308.5,17.4,309.4,16.5z M335.4,33.1V26h8.7v-5.2h-8.7v-6.5h10V8.9H329v29.6h16.4v-5.4H335.4z"/>
<path class="st1" d="M46.5,5c-0.1-0.4-0.4-0.7-0.8-0.9l-8-3.9c-0.6-0.3-1.4-0.3-2,0l-2.7,1.4V1.2c0-0.3-0.2-0.6-0.6-0.6h-1.6
	c-0.3,0-0.6,0.3-0.6,0.6v1.6l-2.4,1.3c-0.4,0.2-0.6,0.5-0.8,0.9c-0.1,0.5-0.1,1,0.1,1.4l0.3,0.4c0.2,0.4,0.6,0.7,1,0.8
	c0.4,0.1,0.8,0.1,1.2-0.1l7.1-3.5L44,7.4c0.2,0.1,0.5,0.2,0.8,0.2c0.1,0,0.3,0,0.4,0c0.4-0.1,0.7-0.4,1-0.7l0.3-0.5
	C46.6,5.9,46.7,5.4,46.5,5z"/>
</svg>
