<?xml version="1.0" encoding="utf-8"?>
<!-- Generator: Adobe Illustrator 21.1.0, SVG Export Plug-In . SVG Version: 6.00 Build 0)  -->
<svg version="1.1" id="Calque_1" xmlns="http://www.w3.org/2000/svg" xmlns:xlink="http://www.w3.org/1999/xlink" x="0px" y="0px"
	 viewBox="0 0 781.2 89.6" style="enable-background:new 0 0 781.2 89.6;" xml:space="preserve">
<style type="text/css">
	.st0{fill:#00663F;}
	.st1{fill:#E30613;}
</style>
<path class="st0" d="M75.8,87.2h14.4V20.3H75.7L75.8,87.2L75.8,87.2z M101.7,32.5h16.1v54.6h14.4V32.5h16.1V20.3h-46.7L101.7,32.5
	L101.7,32.5z M31.7,61.9h16v10.4c-3.8,2.8-8.8,4.4-13.8,4.4c-11.8,0-20-9.1-20-22.4c0-12.3,8.4-21.9,19-21.9c7.6,0,12,2.5,16.7,6.6
	l1,0.8l8.5-10.6l-0.9-0.8c-7.4-6.6-14.5-9.2-24.8-9.2C14.7,19.2,0,34.7,0,54.4v0.2c0,20.3,14.1,35,33.6,35
	c12.5,0,21.5-5.7,26.9-10.5l0.4-0.4V49.3h-29v12.6H31.7z M174.3,58.9h19.6V47.2h-19.6V32.6h22.5V20.3h-37v66.9H197V74.9h-22.7V58.9z
	 M244.8,56.9c-1.3-1.7-3.1-3.3-5.2-4.8s-4.6-3.1-7.5-4.6c-1.6-0.9-3.1-1.7-4.5-2.4c-1.4-0.7-2.6-1.5-3.6-2.3s-1.8-1.6-2.4-2.5
	c-0.6-0.9-0.8-1.9-0.8-3.1c0-2.2,0.9-3.8,2.8-4.9c1.8-1.1,4.2-1.6,7-1.6c0.8,0,1.7,0.1,2.7,0.2c1,0.2,1.9,0.4,2.9,0.6
	c0.9,0.3,1.8,0.5,2.6,0.8c0.8,0.3,1.4,0.6,1.8,0.8l6.3-10.4c-1.8-1.1-4.3-2.1-7.6-3c-3.2-0.9-6.6-1.3-10.2-1.3
	c-3.4,0-6.5,0.5-9.3,1.4c-2.8,0.9-5.1,2.3-7,3.9c-1.9,1.7-3.4,3.7-4.4,6s-1.5,4.8-1.5,7.5c0,4.7,1.5,8.7,4.5,11.9
	c3,3.2,7.4,6,13.2,8.4c3.8,1.6,6.3,3.3,7.7,4.9c1.4,1.7,2.1,3.6,2.1,5.8c0,2.5-0.9,4.4-2.7,5.8c-1.8,1.4-4.2,2.1-7.4,2.1
	c-2.7,0-4.9-0.3-6.6-0.8c-1.7-0.6-3.4-1.3-5-2.2l-1.1-0.7l-5.3,11.5c2,1.1,4.7,2.1,8.1,3.1s7.4,1.5,12,1.5c3.2,0,6.1-0.4,8.9-1.3
	c2.7-0.9,5.1-2.2,7.1-3.9c2-1.7,3.6-3.8,4.7-6.3c1.2-2.5,1.7-5.4,1.7-8.5c0-2.3-0.3-4.3-1-6.2C247.1,60.4,246.1,58.7,244.8,56.9z
	 M343.9,29.2c-2.7-3.2-6.1-5.7-10.2-7.6s-8.9-2.8-14.4-2.8c-1.4,0-3.1,0.1-5,0.2c-2,0.2-4,0.4-6.1,0.6c-2.1,0.3-4,0.5-5.9,0.9
	c-1.8,0.3-3.3,0.7-4.5,1.1v64.3c1.3,0.4,2.9,0.8,4.8,1.2c1.9,0.3,3.9,0.6,6,0.9c2.1,0.2,4.1,0.4,6,0.6c1.9,0.1,3.6,0.2,5,0.2
	c5.7,0,10.6-1,14.6-3.1c4.1-2.1,7.4-4.8,10-8.1c2.6-3.3,4.6-7.1,5.8-11.3c1.3-4.2,1.9-8.3,1.9-12.5c0-4.7-0.7-9.2-2-13.4
	C348.7,36,346.6,32.4,343.9,29.2z M336.6,62.4c-0.8,2.7-1.9,5.1-3.3,7.2c-1.5,2.1-3.3,3.7-5.4,4.9c-2.1,1.2-4.5,1.8-7.2,1.8
	c-1.6,0-3.1-0.1-4.6-0.2c-1.4-0.2-2.6-0.4-3.7-0.8V32.2c0.7-0.3,1.7-0.6,3.1-0.8c1.3-0.2,2.8-0.4,4.5-0.4c3,0,5.6,0.6,7.8,1.8
	c2.2,1.2,4.1,2.9,5.6,4.9c1.5,2.1,2.6,4.5,3.3,7.3c0.7,2.8,1.1,5.7,1.1,8.8C337.7,56.9,337.3,59.8,336.6,62.4z M380,58.9h19.6V47.2
	H380V32.6h22.5V20.3h-37v66.9h37.2V74.9H380V58.9z M453.5,87.2H468V59.5h19.6V47.8H468V32.4h22.5V20.2h-37L453.5,87.2L453.5,87.2z
	 M540.2,52.2c1.8-3.2,2.6-6.7,2.6-10.4c0-3.1-0.6-6-1.8-8.8s-2.9-5.2-5.1-7.3c-2.2-2.1-4.7-3.8-7.7-5c-3-1.3-6.3-1.9-9.9-1.9
	c-3.6,0-7.1,0.3-10.5,0.8s-6.2,1.2-8.4,2v65.6h14.5V63.4l6.3,0.1h0.2l10.8,23.7h15.6L533,60C536,57.9,538.4,55.4,540.2,52.2z
	 M528.3,45c-0.5,1.2-1.1,2.3-2,3.2c-0.8,0.9-1.8,1.7-3,2.2c-1.1,0.5-2.4,0.8-3.8,0.8l-5.7-0.1V32.5c0.8-0.3,1.8-0.5,3-0.7
	c1.2-0.1,2.1-0.2,2.8-0.2c1.4,0,2.7,0.3,3.9,0.8s2.1,1.2,3,2.1c0.8,0.9,1.4,1.9,1.9,3.1c0.4,1.2,0.7,2.4,0.7,3.6
	C529,42.5,528.8,43.9,528.3,45z M574.7,19.3l-26,67.4H562l5.8-15.5h24.7l5.7,15.5h13.7l-26-67.4H574.7z M572.6,58.4l7.6-20l7.6,20
	H572.6z M657.2,60.9l-28-41.2h-11.5V87h12.7V44.5L659.3,87h10.6V19.7h-12.7V60.9z M699.8,37.4c2-2,4.3-3.6,7-4.7
	c2.7-1.2,5.5-1.7,8.6-1.7c1.9,0,4,0.3,6.2,0.8s4.4,1.4,6.6,2.7l6.2-10c-2.6-1.9-5.6-3.4-9-4.3s-6.9-1.4-10.4-1.4
	c-4.9,0-9.6,0.9-13.9,2.7c-4.4,1.8-8.2,4.3-11.4,7.4c-3.3,3.1-5.8,6.8-7.7,11s-2.9,8.8-2.9,13.7c0,4.9,1,9.5,2.9,13.7
	c1.9,4.3,4.5,8,7.8,11.2s7.1,5.7,11.5,7.5s9.2,2.7,14.2,2.7c3.3,0,6.6-0.5,9.9-1.5c3.3-1,6.3-2.4,9-4.3l-6.3-10.1
	c-2,1.3-4.2,2.2-6.5,2.8c-2.3,0.5-4.4,0.8-6.1,0.8c-3.1,0-5.9-0.6-8.6-1.7c-2.7-1.2-5-2.8-7-4.8s-3.6-4.4-4.7-7.2
	c-1.2-2.8-1.7-5.8-1.7-9c0-3.3,0.6-6.3,1.7-9C696.2,41.9,697.8,39.5,699.8,37.4z M758.5,74.9v-16h19.6V47.2h-19.6V32.5H781V20.3h-37
	v66.9h37.2V74.9H758.5z"/>
<path class="st1" d="M105,11.3c-0.3-0.9-0.9-1.6-1.8-2L85.1,0.5c-1.4-0.6-3.1-0.6-4.5,0l-6.1,3.2V2.8c0-0.7-0.6-1.3-1.3-1.3h-3.7
	c-0.7,0-1.3,0.6-1.3,1.3v3.7l-5.5,2.8c-0.8,0.4-1.4,1.1-1.7,1.9c-0.3,1-0.2,2.1,0.3,3.1l0.6,0.9c0.5,0.9,1.3,1.5,2.2,1.7
	c0.9,0.2,1.8,0.1,2.7-0.3l16.1-8l16.1,8c0.5,0.3,1.1,0.4,1.7,0.4c0.3,0,0.6,0,1-0.1c0.9-0.3,1.7-0.9,2.2-1.7l0.7-1.1
	C105.2,13.4,105.3,12.3,105,11.3z"/>
</svg>
