<?xml version="1.0" encoding="utf-8"?>
<!-- Generator: Adobe Illustrator 21.1.0, SVG Export Plug-In . SVG Version: 6.00 Build 0)  -->
<svg version="1.1" id="Calque_1" xmlns="http://www.w3.org/2000/svg" xmlns:xlink="http://www.w3.org/1999/xlink" x="0px" y="0px"
	 viewBox="0 0 386.9 272.5" style="enable-background:new 0 0 386.9 272.5;" xml:space="preserve">
<style type="text/css">
	.st0{fill:#00663F;}
	.st1{fill:#E3F1EA;}
	.st2{clip-path:url(#SVGID_2_);}
	.st3{fill:none;stroke:#00663F;stroke-width:4.5;stroke-miterlimit:10;}
	.st4{fill:#F8DD47;}
	.st5{font-family:'Raleway-Bold';}
	.st6{font-size:32px;}
</style>
<path class="st0" d="M140.1,182.9l-30.5,65l31.9-8.8l14,30.4l30.5-65L140.1,182.9z"/>
<path class="st1" d="M147,201c0,0,6.7,4.9,19.7,7.3l-19.6,43.3l-5.7-12.4l-14.7,4.1L147,201z"/>
<path class="st0" d="M248.4,185.7l30.5,65l-31.9-8.9l-14,30.4l-30.5-65L248.4,185.7z"/>
<path class="st1" d="M241.5,203.7c0,0-6.7,4.9-19.7,7.3l19.6,43.3l5.7-12.5l14.7,4.1L241.5,203.7z"/>
<path class="st1" d="M193.5,216.4c-59.1,0-107-47.9-107-107s47.9-107,107-107s107,47.9,107,107l0,0
	C300.5,168.4,252.5,216.4,193.5,216.4"/>
<g>
	<defs>
		<rect id="SVGID_1_" x="84.3" y="0.2" width="219" height="273"/>
	</defs>
	<clipPath id="SVGID_2_">
		<use xlink:href="#SVGID_1_"  style="overflow:visible;"/>
	</clipPath>
	<g class="st2">
		<path class="st3" d="M193.5,216.4c-59.1,0-107-47.9-107-107s47.9-107,107-107s107,47.9,107,107l0,0
			C300.5,168.4,252.5,216.4,193.5,216.4"/>
	</g>
</g>
<path class="st0" d="M276.9,109.5c0,46.1-37.3,83.4-83.4,83.4c-46.1,0-83.4-37.3-83.4-83.4c0-46.1,37.3-83.4,83.4-83.4c0,0,0,0,0,0
	C239.5,26.1,276.9,63.4,276.9,109.5L276.9,109.5z"/>
<path class="st4" d="M197.9,36.6l4.8,9.8l10.7,1.6l-7.7,7.5l1.8,10.7l-9.6-5l-9.6,5l1.9-10.7l-7.8-7.5l10.7-1.6L197.9,36.6z
	 M250.4,97l4.8,9.8l10.7,1.5l-7.8,7.6l1.9,10.6l-9.6-5l-9.6,5l1.8-10.6l-7.7-7.6l10.7-1.6L250.4,97z M138.7,97l4.8,9.8l10.6,1.5
	l-7.7,7.6l1.8,10.6l-9.5-5l-9.6,5l1.8-10.6l-7.7-7.6l10.7-1.6L138.7,97z M220.4,70.5l4.8,9.8l10.7,1.6l-7.7,7.5L230,100l-9.6-5
	l-9.6,5l1.9-10.7l-7.8-7.5l10.7-1.6L220.4,70.5z M170.9,70.5l4.8,9.8l10.7,1.6l-7.7,7.5l1.8,10.7l-9.6-5l-9.6,5l1.9-10.7l-7.8-7.5
	l10.7-1.6L170.9,70.5z"/>
<text transform="matrix(1 0 0 1 158.1167 160.0541)" class="st1 st5 st6">2021</text>
</svg>
